<mxfile host="app.diagrams.net" modified="2024-05-29T23:04:20.712Z" agent="Mozilla/5.0 (X11; Linux x86_64) AppleWebKit/537.36 (KHTML, like Gecko) Chrome/125.0.0.0 Safari/537.36" version="24.4.9" etag="A965xJ6yN-fCJgxM-78H" type="github">
  <diagram name="Page-1" id="oj7cWV6Gg2kIIMJUYh-4">
    <mxGraphModel>
      <root>
        <mxCell id="0" />
        <mxCell id="1" parent="0" />
      </root>
    </mxGraphModel>
  </diagram>
</mxfile>
